<svg width="20" height="20" viewBox="0 0 20 20" fill="none" xmlns="http://www.w3.org/2000/svg">
<path fill-rule="evenodd" clip-rule="evenodd" d="M15.9141 7.15626L17.9375 8.28122C18.1902 9.41289 18.1928 10.586 17.9453 11.7187L15.9141 12.8437C15.7746 13.1411 15.61 13.426 15.422 13.6953L15.461 16.0156C14.6035 16.7971 13.5885 17.3858 12.4844 17.7422L10.4922 16.5469C10.1646 16.5703 9.83559 16.5703 9.50783 16.5469L7.52342 17.7343C6.41594 17.3845 5.39757 16.798 4.53911 16.0156L4.57817 13.7031C4.39171 13.4301 4.22706 13.1427 4.08592 12.8437L2.06261 11.7187C1.81389 10.5867 1.81114 9.41441 2.05467 8.28122L4.08592 7.15626C4.22539 6.85887 4.39003 6.57399 4.57817 6.30467L4.53911 3.98434C5.39665 3.20294 6.41151 2.61418 7.51564 2.25781L9.50783 3.45311C9.83559 3.42969 10.1646 3.42969 10.4922 3.45311L12.4766 2.26559C13.5842 2.61555 14.6024 3.20203 15.461 3.98434L15.422 6.30467C15.61 6.57399 15.7746 6.85887 15.9141 7.15626ZM7.91664 13.118C8.5334 13.5301 9.25835 13.75 10.0001 13.75C10.9946 13.75 11.9485 13.3549 12.6517 12.6516C13.3549 11.9484 13.7501 10.9945 13.7501 9.99997C13.7501 9.25832 13.53 8.53329 13.1181 7.91661C12.7059 7.29993 12.1203 6.81927 11.4352 6.53546C10.7499 6.25165 9.9958 6.17734 9.26842 6.32207C8.54103 6.46672 7.87285 6.82393 7.3484 7.34837C6.82396 7.87282 6.46675 8.541 6.3221 9.26839C6.17744 9.99585 6.2516 10.7499 6.53541 11.4351C6.81938 12.1203 7.30003 12.706 7.91664 13.118Z" fill="white" fill-opacity="0.1"/>
<path fill-rule="evenodd" clip-rule="evenodd" d="M10 5.625C10 5.625 11.8122 5.625 13.0936 6.90641C13.0936 6.90641 14.375 8.18782 14.375 10C14.375 10 14.375 11.8122 13.0936 13.0936C13.0936 13.0936 11.8122 14.375 10 14.375C10 14.375 8.18782 14.375 6.90641 13.0936C6.90641 13.0936 5.625 11.8122 5.625 10C5.625 10 5.625 8.18782 6.90641 6.90641C6.90641 6.90641 8.18782 5.625 10 5.625ZM10 6.875C10 6.875 8.70558 6.875 7.79029 7.79029C7.79029 7.79029 6.875 8.70558 6.875 10C6.875 10 6.875 11.2944 7.79029 12.2097C7.79029 12.2097 8.70558 13.125 10 13.125C10 13.125 11.2944 13.125 12.2097 12.2097C12.2097 12.2097 13.125 11.2944 13.125 10C13.125 10 13.125 8.70558 12.2097 7.79029C12.2097 7.79029 11.2944 6.875 10 6.875Z" fill="white"/>
<path fill-rule="evenodd" clip-rule="evenodd" d="M16.086 3.9949L16.0503 6.11849C16.0503 6.11849 16.2355 6.40287 16.3895 6.70535L18.2414 7.735C18.3973 7.8217 18.5088 7.97092 18.5477 8.14506C18.5477 8.14506 18.9613 9.99768 18.5561 11.8522C18.5177 12.0278 18.4056 12.1784 18.2483 12.2655L16.3892 13.2952C16.3892 13.2952 16.2354 13.5974 16.0503 13.8815L16.086 16.0051C16.0891 16.1846 16.0148 16.3567 15.8821 16.4776C15.8821 16.4776 14.4808 17.7546 12.6766 18.337C12.5049 18.3924 12.3177 18.3709 12.163 18.2781L10.3361 17.182C10.3361 17.182 9.99999 17.197 9.6639 17.1819L7.84457 18.2707C7.69117 18.3625 7.50581 18.3842 7.33535 18.3303C7.33535 18.3303 5.52304 17.7578 4.11827 16.4776C3.9856 16.3567 3.91132 16.1845 3.91435 16.0051L3.95014 13.8863C3.95014 13.8863 3.76602 13.599 3.61128 13.2948L1.75899 12.265C1.6024 12.1779 1.4907 12.0279 1.45225 11.8529C1.45225 11.8529 1.0457 10.0023 1.44384 8.14992C1.48177 7.97343 1.59416 7.82197 1.75207 7.73451L3.6112 6.70484C3.6112 6.70484 3.76502 6.40263 3.9501 6.11849L3.91435 3.9949C3.91133 3.81542 3.98561 3.64331 4.11829 3.52241C4.11829 3.52241 5.51962 2.24545 7.32382 1.66304C7.49548 1.60762 7.68271 1.62908 7.83738 1.72188L9.66431 2.81804C9.66431 2.81804 10.0004 2.803 10.3365 2.81806L12.1558 1.72932C12.3092 1.63752 12.4946 1.61581 12.665 1.66966C12.665 1.66966 14.4773 2.24223 15.8821 3.52243C16.0148 3.64333 16.0891 3.81543 16.086 3.9949ZM14.7972 6.29417L14.8314 4.26285C14.8314 4.26285 13.8108 3.39841 12.5508 2.94969L10.8133 3.98943C10.7033 4.05527 10.5757 4.08568 10.4478 4.07653C10.4478 4.07653 10.0002 4.04452 9.5526 4.07653C9.42446 4.0857 9.29661 4.05516 9.18645 3.98906L7.44339 2.94322C7.44339 2.94322 6.18789 3.39902 5.16903 4.26277L5.20323 6.29417C5.20545 6.42576 5.16607 6.55469 5.09071 6.66258C5.09071 6.66258 4.83878 7.02325 4.65202 7.42158C4.59614 7.54074 4.50408 7.63923 4.38895 7.703L2.61208 8.68711C2.61208 8.68711 2.37914 10.0004 2.61846 11.3126L4.38984 12.2975C4.5041 12.361 4.59557 12.4588 4.65136 12.577C4.65136 12.577 4.84217 12.9814 5.09439 13.3506C5.16739 13.4574 5.20542 13.5843 5.20323 13.7137L5.16905 15.7372C5.16905 15.7372 6.18962 16.6016 7.4496 17.0503L9.18707 16.0106C9.29709 15.9447 9.42471 15.9143 9.5526 15.9235C9.5526 15.9235 10.0002 15.9555 10.4478 15.9235C10.5759 15.9143 10.7038 15.9448 10.8139 16.0109L12.557 17.0568C12.557 17.0568 13.8125 16.601 14.8314 15.7372L14.7972 13.7058C14.7949 13.5742 14.8343 13.4453 14.9097 13.3374C14.9097 13.3374 15.1616 12.9768 15.3484 12.5784C15.4042 12.4593 15.4963 12.3608 15.6114 12.297L17.3894 11.3123C17.3894 11.3123 17.6263 9.99958 17.383 8.68796L15.6105 7.7025C15.4958 7.63872 15.4041 7.54043 15.3484 7.42158C15.3484 7.42158 15.1616 7.02325 14.9097 6.66258C14.8343 6.55469 14.7949 6.42576 14.7972 6.29417Z" fill="white"/>
</svg>
