<svg width="28" height="28" viewBox="0 0 28 28" fill="none" xmlns="http://www.w3.org/2000/svg">
<path d="M14.3439 18.8985L18.2814 21.3985C18.7892 21.7188 19.4142 21.2422 19.2658 20.6563L18.1251 16.1719C18.0943 16.0476 18.0992 15.9171 18.1393 15.7955C18.1794 15.6739 18.253 15.566 18.3517 15.4844L21.883 12.5391C22.3439 12.1563 22.1095 11.3829 21.5079 11.3438L16.8985 11.0469C16.7728 11.0396 16.6519 10.9958 16.5506 10.9209C16.4493 10.8459 16.372 10.7431 16.3282 10.625L14.6095 6.29691C14.564 6.17182 14.4811 6.06379 14.3721 5.98742C14.2631 5.91109 14.1332 5.87012 14.0001 5.87012C13.867 5.87012 13.7371 5.91109 13.6281 5.98742C13.5191 6.06379 13.4362 6.17182 13.3908 6.29691L11.672 10.625C11.6282 10.7431 11.5509 10.8459 11.4496 10.9209C11.3484 10.9958 11.2274 11.0396 11.1017 11.0469L6.49234 11.3438C5.89076 11.3829 5.65639 12.1563 6.11728 12.5391L9.64854 15.4844C9.74727 15.566 9.82089 15.6739 9.86095 15.7955C9.90108 15.9171 9.90596 16.0476 9.87514 16.1719L8.82045 20.3282C8.64078 21.0313 9.39075 21.6016 9.99232 21.2188L13.6563 18.8985C13.7591 18.8331 13.8784 18.7984 14.0001 18.7984C14.1219 18.7984 14.2411 18.8331 14.3439 18.8985Z" fill="white" fill-opacity="0.2"/>
<path fill-rule="evenodd" clip-rule="evenodd" d="M14.0084 19.4259C14.0084 19.4259 14.0046 19.4234 14.0001 19.4234C14.0001 19.4234 13.9955 19.4234 13.9917 19.4259L10.3266 21.7468C10.3266 21.7468 9.93675 21.9949 9.48655 21.9635C9.48655 21.9635 9.07226 21.9345 8.73511 21.6782C8.73511 21.6782 8.40217 21.4252 8.25729 21.0357C8.25729 21.0357 8.1015 20.6169 8.21483 20.1734L9.26925 16.0182C9.26925 16.0182 9.27225 16.0061 9.26731 15.9911C9.26731 15.9911 9.26237 15.9761 9.25022 15.9661L5.71692 13.019C5.71692 13.019 5.39728 12.7536 5.29241 12.3555C5.29241 12.3555 5.19657 11.9918 5.30925 11.6277C5.30925 11.6277 5.42319 11.2596 5.71159 11.0158C5.71159 11.0158 6.02905 10.7475 6.45174 10.7201L11.0614 10.4232C11.0614 10.4232 11.0723 10.4225 11.0779 10.4184C11.0779 10.4184 11.0835 10.4142 11.0859 10.4077L11.0911 10.3943L12.8069 6.07343C12.8069 6.07343 12.9449 5.70285 13.2695 5.47549C13.2695 5.47549 13.5985 5.24512 14.0001 5.24512C14.0001 5.24512 14.4016 5.24512 14.7306 5.47549C14.7306 5.47549 15.0552 5.70285 15.1932 6.07343L16.9091 10.3943L16.9142 10.4077C16.9142 10.4077 16.9166 10.4142 16.9222 10.4184C16.9222 10.4184 16.9278 10.4225 16.9348 10.4229L21.548 10.7201C21.548 10.7201 21.9711 10.7475 22.2885 11.0158C22.2885 11.0158 22.5769 11.2596 22.6909 11.6277C22.6909 11.6277 22.8035 11.9918 22.7077 12.3555C22.7077 12.3555 22.6028 12.7536 22.2822 13.0199L18.7519 15.9644C18.7519 15.9644 18.7377 15.9761 18.7328 15.9911C18.7328 15.9911 18.7279 16.0061 18.7317 16.0214L19.8714 20.5022C19.8714 20.5022 19.9732 20.904 19.8313 21.2834C19.8313 21.2834 19.6992 21.6365 19.3969 21.8655C19.3969 21.8655 19.0904 22.0976 18.7131 22.1235C18.7131 22.1235 18.304 22.1517 17.9479 21.9271L14.0093 19.4264L14.0088 19.4261L14.0084 19.4259ZM18.6147 20.8698L14.6793 18.3711L14.6788 18.3708C14.6788 18.3708 14.3682 18.1734 14.0001 18.1734C14.0001 18.1734 13.6317 18.1734 13.3209 18.3711L9.65786 20.6907C9.65786 20.6907 9.5728 20.7449 9.49156 20.6831C9.49156 20.6831 9.39374 20.6088 9.42591 20.4829L10.4809 16.3256C10.4809 16.3256 10.5723 15.9572 10.4545 15.5999C10.4545 15.5999 10.3367 15.2425 10.0468 15.0027L6.51756 12.0591C6.51756 12.0591 6.49105 12.0371 6.50336 11.9973C6.50336 11.9973 6.51219 11.9688 6.53274 11.9675L11.1418 11.6706C11.1418 11.6706 11.5164 11.6488 11.8213 11.4233C11.8213 11.4233 12.1228 11.2003 12.255 10.8501L13.9716 6.52757L13.978 6.51054C13.978 6.51054 13.9806 6.5036 13.9866 6.49936C13.9866 6.49936 13.9927 6.49512 14.0001 6.49512C14.0001 6.49512 14.0074 6.49512 14.0135 6.49936C14.0135 6.49936 14.0196 6.5036 14.0221 6.51054L14.0286 6.52757L15.7451 10.8501C15.7451 10.8501 15.8773 11.2003 16.1788 11.4233C16.1788 11.4233 16.4837 11.6488 16.8622 11.6708L21.4677 11.9675C21.4677 11.9675 21.4879 11.9688 21.4967 11.9973C21.4967 11.9973 21.5091 12.0371 21.4836 12.0583L17.9513 15.0044C17.9513 15.0044 17.6634 15.2425 17.5456 15.5999C17.5456 15.5999 17.4278 15.9572 17.5184 16.3224L18.66 20.8103C18.66 20.8103 18.6696 20.8483 18.6423 20.869C18.6423 20.869 18.6291 20.8789 18.6147 20.8698Z" fill="white"/>
</svg>
