<svg width="28" height="28" viewBox="0 0 28 28" fill="none" xmlns="http://www.w3.org/2000/svg">
<path d="M8.39087 12.125C8.3898 11.384 8.53537 10.6502 8.81918 9.96572C9.103 9.28125 9.51941 8.65972 10.0443 8.13688C10.5694 7.61404 11.1927 7.20022 11.8783 6.91927C12.564 6.63835 13.2984 6.49583 14.0394 6.49995C17.1331 6.52341 19.6096 9.09372 19.6096 12.1953V12.75C19.6096 15.5469 20.1955 17.1718 20.7111 18.0625C20.7659 18.1573 20.7949 18.2649 20.7949 18.3744C20.795 18.4839 20.7664 18.5916 20.7117 18.6865C20.6571 18.7814 20.5785 18.8604 20.4839 18.9154C20.3892 18.9704 20.2816 18.9996 20.1722 19H7.82843C7.71887 18.9996 7.6113 18.9704 7.51669 18.9154C7.42194 18.8604 7.34335 18.7814 7.28873 18.6865C7.2341 18.5916 7.20541 18.4839 7.20557 18.3744C7.20572 18.2649 7.23456 18.1573 7.28934 18.0625C7.80493 17.1718 8.39087 15.5469 8.39087 12.75V12.125Z" fill="white" fill-opacity="0.2"/>
<path fill-rule="evenodd" clip-rule="evenodd" d="M7.76587 12.7499V12.1249C7.76587 12.1249 7.76411 10.8785 8.24182 9.72632C8.24182 9.72632 8.71953 8.57413 9.60334 7.69398C9.60334 7.69398 10.4871 6.81384 11.6413 6.34093C11.6413 6.34093 12.7955 5.86801 14.0428 5.87495C14.0428 5.87495 15.311 5.88456 16.4659 6.39122C16.4659 6.39122 17.5771 6.87869 18.4324 7.75733C18.4324 7.75733 19.2845 8.63254 19.7518 9.76109C19.7518 9.76109 20.2346 10.9272 20.2346 12.1953V12.7499C20.2346 12.7499 20.2346 15.9919 21.2521 17.7493C21.2521 17.7493 21.4196 18.0395 21.4199 18.3738C21.4199 18.3738 21.4202 18.7082 21.2535 18.998C21.2535 18.998 21.0869 19.2879 20.7978 19.4558C20.7978 19.4558 20.5087 19.6238 20.1743 19.6249L7.82837 19.6249C7.82837 19.6249 7.49182 19.6238 7.20271 19.4558C7.20271 19.4558 6.9136 19.2879 6.74693 18.998C6.74693 18.998 6.58027 18.7082 6.58057 18.3738C6.58057 18.3738 6.58086 18.0395 6.74804 17.7499C6.74804 17.7499 7.76587 15.9919 7.76587 12.7499ZM9.01587 12.7499C9.01587 12.7499 9.01587 16.3276 7.83057 18.3749L20.1699 18.3749C20.1699 18.3749 18.9846 16.3271 18.9846 12.7499V12.1953C18.9846 12.1953 18.9846 10.1165 17.5368 8.62928C17.5368 8.62928 16.0874 7.14048 14.0358 7.12493C14.0358 7.12493 13.0383 7.11938 12.1153 7.4976C12.1153 7.4976 11.1922 7.87581 10.4854 8.5797C10.4854 8.5797 9.77856 9.2836 9.39651 10.2051C9.39651 10.2051 9.01446 11.1265 9.01587 12.1249V12.7499Z" fill="white"/>
<path d="M17.125 19.625V19C17.125 18.6548 16.8452 18.375 16.5 18.375C16.1548 18.375 15.875 18.6548 15.875 19V19.625C15.875 20.4016 15.3258 20.9508 15.3258 20.9508C14.7766 21.5 14 21.5 14 21.5C13.2234 21.5 12.6742 20.9508 12.6742 20.9508C12.125 20.4016 12.125 19.625 12.125 19.625V19C12.125 18.6548 11.8452 18.375 11.5 18.375C11.1548 18.375 10.875 18.6548 10.875 19L10.875 19.625C10.875 20.9194 11.7903 21.8347 11.7903 21.8347C12.7056 22.75 14 22.75 14 22.75C15.2944 22.75 16.2097 21.8347 16.2097 21.8347C17.125 20.9194 17.125 19.625 17.125 19.625Z" fill="white"/>
</svg>
