<svg width="24" height="27" viewBox="0 0 24 27" fill="none" xmlns="http://www.w3.org/2000/svg">
<path d="M22 9H8.5V5.5C8.5 4.57174 8.86875 3.6815 9.52513 3.02513C10.1815 2.36875 11.0717 2 12 2C12.9283 2 13.8185 2.36875 14.4749 3.02513C15.1313 3.6815 15.5 4.57174 15.5 5.5C15.5 5.76522 15.6054 6.01957 15.7929 6.20711C15.9804 6.39464 16.2348 6.5 16.5 6.5C16.7652 6.5 17.0196 6.39464 17.2071 6.20711C17.3946 6.01957 17.5 5.76522 17.5 5.5C17.5 4.04131 16.9205 2.64236 15.8891 1.61091C14.8576 0.579463 13.4587 0 12 0C10.5413 0 9.14236 0.579463 8.11091 1.61091C7.07946 2.64236 6.5 4.04131 6.5 5.5V9H2C1.46957 9 0.960859 9.21071 0.585786 9.58579C0.210714 9.96086 0 10.4696 0 11V25C0 25.5304 0.210714 26.0391 0.585786 26.4142C0.960859 26.7893 1.46957 27 2 27H22C22.5304 27 23.0391 26.7893 23.4142 26.4142C23.7893 26.0391 24 25.5304 24 25V11C24 10.4696 23.7893 9.96086 23.4142 9.58579C23.0391 9.21071 22.5304 9 22 9Z" fill="#00FF0A" fill-opacity="0.4"/>
</svg>
